HIERARCHY
ROOT Hips
{
    OFFSET 0.000000 0.000000 0.000000
    CHANNELS 6 Xposition Yposition Zposition Zrotation Xrotation Yrotation
    JOINT Spine
    {
        OFFSET -0.000000 8.104110 0.000000
        CHANNELS 3 Zrotation Xrotation Yrotation
        JOINT Spine1
        {
            OFFSET -0.000000 22.417536 0.000000
            CHANNELS 3 Zrotation Xrotation Yrotation
            JOINT Neck
            {
                OFFSET -0.000000 22.325472 2.029588
                CHANNELS 3 Zrotation Xrotation Yrotation
                JOINT Head
                {
                    OFFSET -0.000000 13.836284 -1.976612
                    CHANNELS 3 Zrotation Xrotation Yrotation
                    End Site
                    {
                        OFFSET -0.000000 24.707651 0.000000
                    }
                }
            }
            JOINT LeftShoulder
            {
                OFFSET 3.973640 20.379602 -0.279950
                CHANNELS 3 Zrotation Xrotation Yrotation
                JOINT LeftArm
                {
                    OFFSET 11.493720 0.000000 0.000000
                    CHANNELS 3 Zrotation Xrotation Yrotation
                    JOINT LeftForeArm
                    {
                        OFFSET 31.336695 0.000000 0.000000
                        CHANNELS 3 Zrotation Xrotation Yrotation
                        JOINT LeftHand
                        {
                            OFFSET 29.043781 0.000000 0.000000
                            CHANNELS 3 Zrotation Xrotation Yrotation
                            End Site
                            {
                                OFFSET 14.824592 0.000000 0.000000
                            }
                        }
                    }
                }
            }
            JOINT RightShoulder
            {
                OFFSET -3.921018 20.379602 -0.279950
                CHANNELS 3 Zrotation Xrotation Yrotation
                JOINT RightArm
                {
                    OFFSET -11.493720 0.000000 0.000000
                    CHANNELS 3 Zrotation Xrotation Yrotation
                    JOINT RightForeArm
                    {
                        OFFSET -31.336695 0.000000 0.000000
                        CHANNELS 3 Zrotation Xrotation Yrotation
                        JOINT RightHand
                        {
                            OFFSET -29.043781 0.000000 0.000000
                            CHANNELS 3 Zrotation Xrotation Yrotation
                            End Site
                            {
                                OFFSET -14.824592 0.000000 0.000000
                            }
                        }
                    }
                }
            }
        }
    }
    JOINT LeftUpLeg
    {
        OFFSET 9.883060 0.000000 0.000000
        CHANNELS 3 Zrotation Xrotation Yrotation
        JOINT LeftLeg
        {
            OFFSET -0.000000 -43.587502 0.000000
            CHANNELS 3 Zrotation Xrotation Yrotation
            JOINT LeftFoot
            {
                OFFSET -0.000000 -41.501083 0.000000
                CHANNELS 3 Zrotation Xrotation Yrotation
                JOINT LeftToeBase
                {
                    OFFSET -0.000000 -6.423989 14.824592
                    CHANNELS 3 Zrotation Xrotation Yrotation
                    End Site
                    {
                        OFFSET -0.000000 0.000000 3.953224
                    }
                }
            }
        }
    }
    JOINT RightUpLeg
    {
        OFFSET -9.883060 0.000000 0.000000
        CHANNELS 3 Zrotation Xrotation Yrotation
        JOINT RightLeg
        {
            OFFSET -0.000000 -43.587502 0.000000
            CHANNELS 3 Zrotation Xrotation Yrotation
            JOINT RightFoot
            {
                OFFSET -0.000000 -41.501083 0.000000
                CHANNELS 3 Zrotation Xrotation Yrotation
                JOINT RightToeBase
                {
                    OFFSET -0.000000 -6.423989 14.824592
                    CHANNELS 3 Zrotation Xrotation Yrotation
                    End Site
                    {
                        OFFSET -0.000000 0.000000 3.953224
                    }
                }
            }
        }
    }
}
MOTION
Frames:    11
Frame Time:    0.008333
-26.712036    92.245750    -83.389923    3.486266    -14.872047    -165.430573    -1.759368    -12.813493    -8.910422    0.803379    37.265305    -8.983621    0.521801    10.634605    1.071464    4.000862    27.264875    0.676107    -1.074541    6.605585    -13.403341    -10.331786    38.775600    -62.420067    0.233690    -6.305611    -15.169479    7.197061    -5.688532    9.352337    2.603608    12.892421    2.822608    47.149849    33.689846    16.337652    -14.546182    -32.937843    13.180943    -18.465992    -30.748865    -5.457089    21.042782    -43.301590    19.407843    1.918271    39.060524    -12.135158    -34.311653    4.200987    5.471492    0.000000    0.000000    0.000000    -1.555983    -41.403450    -7.034445    21.502617    58.318111    -1.924974    19.091106    -0.980818    -16.370195    0.000000    0.000000    0.000000    
-27.205048    92.292068    -83.215286    2.908087    -14.713063    -165.823105    -1.905299    -13.089526    -9.052773    0.229679    37.322624    -8.911624    0.833370    10.815501    1.049242    3.970800    27.507469    0.631724    -1.096250    6.889342    -13.591306    -10.662751    39.332703    -62.483860    -0.083789    -5.964306    -15.037668    4.669352    -5.570445    9.958572    2.718667    13.032637    1.954770    47.377983    33.334038    15.784885    -15.161502    -31.520754    12.189016    -21.180758    -29.085386    -6.374720    20.925085    -42.203941    18.915730    1.888074    39.157871    -10.234028    -32.811325    2.284673    5.866282    0.000000    0.000000    0.000000    -0.027347    -39.735313    -5.238081    19.078444    55.649677    -2.724087    16.839685    0.795536    -15.511872    0.000000    0.000000    0.000000    
-27.710098    92.244522    -83.102303    2.266551    -14.417170    -166.277344    -2.081033    -13.345744    -9.129633    -0.222773    37.451630    -8.810516    1.007067    10.839342    1.140625    4.056955    27.916265    0.693082    -1.173985    7.161288    -13.860476    -11.177339    39.777935    -62.396362    -0.615092    -6.032334    -14.728846    2.606399    -5.890891    9.727596    2.578305    12.728889    1.480875    48.640625    32.738792    13.879463    -15.982701    -30.672302    11.934553    -22.644375    -28.040359    -6.679378    20.786194    -40.958698    18.493687    2.115039    39.550838    -8.213592    -31.733612    0.851291    5.408745    0.000000    0.000000    0.000000    1.254128    -37.827900    -3.367271    17.435753    53.155140    -3.889304    13.520736    0.855230    -14.995038    0.000000    0.000000    0.000000    
-28.208197    92.103996    -83.002045    1.684187    -14.180768    -166.806152    -2.327600    -13.806986    -9.195090    -0.465987    37.715153    -8.753961    1.086631    10.957795    1.081309    4.005835    28.075392    0.627854    -1.202623    7.398472    -13.954350    -11.639132    40.201515    -62.450172    -1.293340    -6.651509    -14.501599    0.785395    -6.753212    9.068651    2.310385    12.674046    0.711205    49.187191    32.485806    12.724027    -16.614443    -30.307323    11.489781    -24.055992    -27.572586    -6.761897    20.968580    -39.517727    17.894314    1.474563    39.735218    -4.194497    -30.913076    0.644729    3.862411    0.000000    0.000000    0.000000    2.479782    -35.927963    -1.465935    16.189264    51.118488    -4.842560    9.223725    -1.749581    -14.282695    0.000000    0.000000    0.000000    
-28.708775    91.876602    -82.934433    1.031127    -13.849425    -167.484818    -2.604982    -14.161556    -9.204004    -0.702472    37.783695    -8.639853    1.724339    11.020802    1.044281    2.852343    28.694128    0.669720    -1.345418    7.729100    -14.103787    -12.164374    40.598209    -62.250595    -2.026445    -7.474970    -14.364558    -0.740847    -7.787036    9.157907    2.047888    12.674277    0.256303    49.945934    31.256216    11.091944    -16.882727    -29.506247    11.857078    -27.224670    -26.200945    -8.135621    21.127678    -38.041397    17.817780    1.251659    40.352768    -0.867482    -30.070213    0.639282    2.276585    0.000000    0.000000    0.000000    3.528216    -34.004673    0.189781    14.995813    49.645748    -5.273776    4.614565    -5.270332    -14.551105    0.000000    0.000000    0.000000    
-29.213438    91.573753    -82.884315    0.392776    -13.401290    -168.232986    -2.668012    -14.326993    -9.190853    -1.181882    37.588058    -8.453134    1.311429    11.582736    1.067370    3.401579    28.582222    0.660151    -1.545377    8.150280    -14.023674    -12.324428    41.073761    -62.177757    -2.688471    -8.551017    -14.336606    -2.600798    -9.088651    9.045177    1.881206    12.807893    -0.190502    50.329136    30.444754    9.729506    -17.517406    -28.997755    11.773959    -29.856197    -25.156797    -9.335815    21.449347    -36.331783    17.747492    0.754373    41.222378    1.595346    -29.421398    0.124040    1.193355    0.000000    0.000000    0.000000    4.418638    -31.995705    1.618293    13.558532    48.046608    -4.414894    1.740801    -8.445041    -16.163309    0.000000    0.000000    0.000000    
-29.734293    91.195366    -82.805077    -0.272285    -12.999374    -169.126312    -2.765856    -14.543374    -9.051894    -1.602375    37.392006    -8.156502    1.471449    12.219359    0.969322    3.036363    28.356243    0.608838    -1.695789    8.334328    -14.175456    -12.837288    41.597919    -61.811436    -3.331533    -9.105102    -14.141272    -3.633841    -9.798848    9.116580    1.712426    12.923290    -0.536853    50.903660    29.629826    7.896837    -18.601645    -28.235140    12.026071    -31.328890    -23.911375    -10.095346    21.802963    -34.776367    17.861393    0.317625    42.694130    2.661291    -28.856886    -1.384096    0.829854    0.000000    0.000000    0.000000    4.972886    -30.281960    3.333282    13.040071    46.434151    -3.969700    -1.459339    -11.019993    -17.990919    0.000000    0.000000    0.000000    
-30.271381    90.742004    -82.740761    -0.973590    -12.510958    -169.969940    -2.913192    -14.648637    -8.966979    -1.854558    37.129200    -7.969430    1.347407    12.969475    0.799957    2.786323    27.985672    0.484917    -1.916119    8.554963    -14.226859    -13.130144    42.146515    -61.535358    -3.701014    -9.593267    -14.007906    -5.066200    -10.460427    9.598660    1.366138    13.010350    -0.822000    51.249519    27.921652    6.372235    -18.970459    -27.011768    12.286370    -33.418472    -22.261641    -10.519538    22.025507    -33.244946    17.887922    0.062727    44.645351    1.696160    -28.022860    -3.728626    1.433372    0.000000    0.000000    0.000000    5.310295    -28.731043    4.651050    12.446443    45.276257    -2.428979    -5.521401    -13.078250    -20.787571    0.000000    0.000000    0.000000    
-30.816900    90.236893    -82.633987    -1.576418    -11.947183    -170.900635    -2.739978    -14.539932    -8.773455    -2.412394    36.670227    -7.624158    1.387440    13.224529    0.905291    2.606848    28.498693    0.603552    -2.068944    8.637268    -14.269550    -13.377600    42.815342    -61.131836    -3.949661    -9.475088    -13.943439    -5.270611    -10.427788    10.485462    1.211704    12.899988    -1.214402    51.571564    26.482121    4.676345    -19.879686    -25.857161    12.349634    -33.780312    -21.073681    -9.998805    22.369829    -31.732088    18.054682    -0.053325    46.925781    0.563039    -27.522385    -5.826486    1.917494    0.000000    0.000000    0.000000    5.746544    -27.411591    5.714751    11.483734    44.831493    0.336467    -8.371958    -15.104913    -24.739031    0.000000    0.000000    0.000000    
-31.371492    89.729462    -82.472054    -2.174749    -11.411771    -171.809891    -2.726788    -14.282869    -8.621285    -2.510918    36.142811    -7.460049    1.028225    13.470954    0.908348    2.686441    28.741190    0.603830    -2.316998    8.647577    -14.166910    -13.716797    43.368156    -60.759571    -4.085112    -8.863688    -13.846293    -4.471382    -9.778113    10.988455    0.967631    13.036005    -1.709486    51.462101    25.264153    3.461649    -20.727694    -25.186228    12.360735    -35.123871    -20.172216    -9.980133    22.574228    -30.363735    18.006428    -0.364245    49.245686    -0.469873    -26.501791    -7.273019    2.553215    0.000000    0.000000    0.000000    5.925784    -26.328035    6.430686    10.441731    44.587082    2.798959    -11.290252    -16.600897    -27.744869    0.000000    0.000000    0.000000    
-31.956562    89.264717    -82.225761    -2.683440    -10.985419    -172.937225    -2.443615    -13.993950    -8.384697    -2.774310    35.508087    -7.196192    0.918942    13.667372    0.851996    2.089264    28.850988    0.617710    -2.688951    8.744798    -14.113255    -13.970390    43.754025    -60.074272    -4.047200    -8.117758    -13.851142    -4.471519    -9.006866    10.401703    0.669430    12.892344    -1.976380    51.370781    24.458286    2.089383    -21.576820    -24.947435    12.503039    -37.007416    -19.593355    -10.120079    22.913227    -28.904415    17.872442    -1.227466    51.569492    -1.972056    -25.469696    -9.470664    3.965144    0.000000    0.000000    0.000000    6.034600    -25.597830    7.486022    9.854529    44.413509    3.624301    -13.496678    -18.087109    -29.355045    0.000000    0.000000    0.000000    
